<svg xmlns="http://www.w3.org/2000/svg" width="26.009" height="26.009" viewBox="0 0 26.009 26.009">
  <g id="up-arrow" transform="translate(0 26.009) rotate(-90)">
    <g id="Group_2" data-name="Group 2">
      <g id="Group_1" data-name="Group 1">
        <path id="Path_7" data-name="Path 7" d="M13,26.009a13,13,0,1,1,13-13A13.018,13.018,0,0,1,13,26.009ZM13,2.015A10.99,10.99,0,1,0,23.994,13,11,11,0,0,0,13,2.015Z" fill="#605a57"/>
      </g>
    </g>
    <g id="Group_4" data-name="Group 4" transform="translate(7.02 9.901)">
      <g id="Group_3" data-name="Group 3">
        <path id="Path_8" data-name="Path 8" d="M11.736,1.713,6.7,6.75a1.007,1.007,0,0,1-1.42,0L.243,1.713A1.007,1.007,0,0,1,1.663.293L5.984,4.614,10.316.293a1,1,0,1,1,1.42,1.42Z" fill="#605a57"/>
      </g>
    </g>
  </g>
</svg>
