<svg xmlns="http://www.w3.org/2000/svg" width="16.254" height="16.253" viewBox="0 0 16.254 16.253">
  <g id="Group_11" data-name="Group 11" transform="translate(-1112.873 -200.873)">
    <g id="remove" transform="translate(1104.611 192.612)">
      <path id="Path_3" data-name="Path 3" d="M175.679,177.045a1.354,1.354,0,0,1-.965-.4l-13.52-13.518a1.366,1.366,0,0,1,1.932-1.932l13.52,13.52a1.365,1.365,0,0,1-.967,2.331Zm0,0" transform="translate(-152.532 -152.531)" fill="#a5a3a2"/>
    </g>
    <path id="Path_2" data-name="Path 2" d="M162.182,177.026a1.366,1.366,0,0,1-.965-2.332l13.52-13.52a1.366,1.366,0,0,1,1.932,1.932l-13.52,13.52A1.367,1.367,0,0,1,162.182,177.026Zm0,0" transform="translate(952.059 40.099)" fill="#a5a3a2"/>
  </g>
</svg>
