<svg id="shopping-cart" xmlns="http://www.w3.org/2000/svg" width="25.521" height="22.431" viewBox="0 0 25.521 22.431">
  <path id="Path_4" data-name="Path 4" d="M8.223,14.954h13.56a.748.748,0,0,0,.719-.542L25.492,3.944a.748.748,0,0,0-.719-.953H6.5L5.964.585A.748.748,0,0,0,5.234,0H.748a.748.748,0,0,0,0,1.5H4.634l2.7,12.148a2.243,2.243,0,0,0,.891,4.3H21.783a.748.748,0,1,0,0-1.5H8.225a.748.748,0,0,1,0-1.5ZM23.782,4.486l-2.564,8.972H8.824l12.764.413Zm0,0" fill="#eff3f4"/>
  <path id="Path_5" data-name="Path 5" d="M150,362.243A2.243,2.243,0,1,0,152.243,360,2.246,2.246,0,0,0,150,362.243Zm2.243-.748a.748.748,0,1,1-.748.748A.749.749,0,0,1,152.243,361.5Zm0,0" transform="translate(-142.523 -342.056)" fill="#eff3f4"/>
  <path id="Path_6" data-name="Path 6" d="M362,362.243A2.243,2.243,0,1,0,364.243,360,2.246,2.246,0,0,0,362,362.243Zm2.243-.748a.748.748,0,1,1-.748.748A.749.749,0,0,1,364.243,361.5Zm0,0" transform="translate(-343.956 -342.056)" fill="#eff3f4"/>
</svg>
